<?xml version="1.0" encoding="utf-8"?>
<!-- Generator: Adobe Illustrator 21.0.0, SVG Export Plug-In . SVG Version: 6.00 Build 0)  -->
<svg version="1.1" id="Layer_1" xmlns="http://www.w3.org/2000/svg" xmlns:xlink="http://www.w3.org/1999/xlink" x="0px" y="0px" width="150px" height="150px" viewBox="0 0 87.7 87.7" style="enable-background:new 0 0 87.7 87.7;" xml:space="preserve">
<style type="text/css">
	.st0{fill:#B22025;}
</style>
<path class="st0" d="M33.5,67.1c5,3.9,9.9,6,10.1,6.1l0.4,0.2l0.4-0.2c0.2-0.1,5.1-2.2,10.1-6.1c6.7-5.2,10.2-11.2,10.2-17.3l0-27.7
	l-41.5,0l0,27.2C23.3,55.7,26.8,61.8,33.5,67.1z M43.1,58.7c-0.2-0.1-0.4-0.1-0.7-0.1h0c-1,0-1.8,0.1-2.6,0.1
	c-0.8,0.1-1.6,0.1-2.8,0.2c-0.6,0-1,0-1.4,0v-13h0.2c0.5,0,1.1,0,1.9,0c0.7,0,1.4-0.1,2.2-0.2c0.5-0.1,0.9-0.1,1.5-0.1
	c0.9-0.1,1.7,0.1,1.7,0.1c0.1,0,0.1,0,0.2,0.1L43.1,58.7L43.1,58.7z M62.8,49.9c0,11.3-13.9,19-18,21V60.6c0.1-0.1,0.1-0.2,0.2-0.2
	c0.2-0.2,0.3-0.4,0.7-0.4c0.9,0,1.7,0.1,2.5,0.1c0.8,0.1,1.7,0.2,2.9,0.2c1.2,0,2.2,0,2.2,0l0.7,0l0-3.9h1.6v-2.1H54l0-3.7h1.6v-2.1
	H54l0-4.2l-0.7,0c-0.3,0-0.6,0-0.9,0c-0.5,0-1.1,0-1.8,0c-0.6,0-1.3-0.1-2.1-0.2c-0.5,0-1-0.1-1.5-0.1c-1.1-0.1-2.1,0.1-2.2,0.1
	c0,0,0,0,0,0v-4h18L62.8,49.9z M44.8,58.7V45.7c0.1,0,0.2-0.1,0.4-0.1c0,0,0.8-0.2,1.7-0.1c0.5,0,1,0.1,1.5,0.1
	c0.8,0.1,1.5,0.2,2.2,0.2c0.7,0,1.2,0,1.7,0h0.4l0,13c-0.4,0-0.9,0-1.4,0c-1.2,0-2-0.1-2.8-0.2c-0.8-0.1-1.5-0.1-2.6-0.1
	C45.3,58.5,45,58.6,44.8,58.7z M25.2,24.2l37.5,0l0,14H25.2L25.2,24.2z M25.2,40.2h17.9v3.9c-0.3-0.1-1.1-0.2-2-0.1
	c-0.5,0-1,0.1-1.5,0.2c-0.8,0.1-1.5,0.2-2.1,0.2c-0.8,0-1.4,0-1.8,0c-0.4,0-0.7,0-0.9,0l-0.7,0v3.8h-1.8v2.1H34V54h-1.8V56H34v4.2
	l0.7,0c0,0,1,0.1,2.2,0c1.3,0,2.1-0.1,2.9-0.2c0.8-0.1,1.5-0.1,2.4-0.1c0.4,0,0.5,0.1,0.7,0.4c0,0,0.1,0.1,0.1,0.1v10.3
	c-4.3-2.1-17.9-9.7-17.9-21.4L25.2,40.2z M40.9,25.6H30.4v0.7c0,2.3,0,6.2,0,6.3c0.1,0.8,0.6,1.5,1.6,2.2c1.3,0.8,3.2,2,3.2,2
	l0.4,0.2l0.4-0.2c0.1,0,2.1-1.2,3.4-2c1.5-1,1.5-1.9,1.5-2.2c0-0.2,0-3.5,0-6.3L40.9,25.6L40.9,25.6z M31.9,27h7.5
	c0,0.6,0,1.3,0,1.9h-7.5C31.9,28.3,31.9,27.7,31.9,27z M39.4,32.6c0,0.4-0.5,0.8-0.9,1c-0.9,0.6-2.3,1.4-2.9,1.7
	c-0.6-0.4-1.9-1.1-2.8-1.7c-0.6-0.4-0.9-0.8-1-1.1c0-0.1,0-1,0-2.1h7.5C39.4,31.6,39.4,32.5,39.4,32.6z M58.7,25.3H48V26
	c0,2.9,0,6.3,0,6.5c0.1,0.8,0.6,1.5,1.6,2.2c1.3,0.9,3.2,2,3.3,2.1l0.4,0.2l0.4-0.2c0.1,0,2.2-1.2,3.5-2.1c1.5-1,1.5-1.9,1.6-2.2
	c0-0.2,0-3.6,0-6.5L58.7,25.3z M57.3,32.5c0,0.4-0.5,0.8-0.9,1.1c-0.9,0.6-2.3,1.4-3,1.8c-0.6-0.4-1.9-1.2-2.9-1.8
	c-0.3-0.2-1-0.7-1-1.1c0,0,0-0.2,0-0.4l3.7-2.7l4.1,2.7C57.3,32.3,57.3,32.4,57.3,32.5z M53.2,27.5l-3.7,2.7c0-1.1,0-2.3,0-3.5h7.8
	c0,1.2,0,2.5,0,3.5L53.2,27.5z M46.7,48.6l0.7,0.1c0.5,0.1,0.9,0.1,1.2,0.1l2.2,0.1l0-1.5l-2.2-0.1c-0.3,0-0.7,0-1.1-0.1l-0.7-0.1
	c-0.2,0-0.4,0-0.5,0l0.1,1.5C46.4,48.6,46.5,48.6,46.7,48.6z M48.7,51.4c-0.3,0-0.7,0-1.1-0.1c-0.2,0-0.5-0.1-0.8-0.1
	c-0.2,0-0.4,0-0.5,0l0,1.5c0.1,0,0.2,0,0.4,0c0.3,0,0.5,0.1,0.8,0.1c0.5,0,0.8,0.1,1.2,0.1c0.5,0,1.1,0,1.6,0l0.6,0l0-1.5l-0.6,0
	C49.8,51.4,49.1,51.4,48.7,51.4z M48.7,55.6c-0.3,0-0.7,0-1.1-0.1c-0.2,0-0.5-0.1-0.7-0.1c-0.2,0-0.4,0-0.5,0l0,1.5
	c0.1,0,0.2,0,0.3,0c0.3,0,0.5,0.1,0.7,0.1c0.5,0.1,0.9,0.1,1.2,0.1l0.6,0c0.6,0,1.3,0,1.6,0l0-1.5c-0.2,0-0.9,0-1.5,0L48.7,55.6z
	 M39.4,48.7c0.4,0,0.8-0.1,1.2-0.1c0.2,0,0.5,0,0.7-0.1c0.1,0,0.2,0,0.3,0l0-1.5c-0.2,0-0.3,0-0.5,0c-0.3,0-0.5,0.1-0.7,0.1
	c-0.4,0-0.8,0.1-1.1,0.1l-2.2,0.1l0,1.5L39.4,48.7z M40.5,51.3c-0.4,0-0.8,0.1-1.1,0.1l-2.2,0.1l0,1.5l2.2-0.1
	c0.4,0,0.8-0.1,1.2-0.1l0.7-0.1c0.1,0,0.2,0,0.3,0l0.1-1.5c-0.2,0-0.3,0-0.5,0L40.5,51.3z M40.4,55.5c-0.4,0-0.8,0.1-1.2,0.1
	c-0.7,0-1.8,0.1-2.1,0.1l0,1.5c0.3,0,1.4,0,2.2-0.1c0.4,0,0.8-0.1,1.2-0.1l0.7-0.1c0.1,0,0.2,0,0.3,0l0-1.5c-0.2,0-0.3,0-0.5,0
	L40.4,55.5z M6.6,44.1c1.8,0,3-1.2,3.1-3.2c0-0.4,0-0.8-0.1-1.4l0-0.2l-1.5,0l0.1,0.3c0.1,0.2,0.2,0.8,0.1,1.2
	c-0.1,1.1-0.9,1.7-2,1.6c-1.1-0.1-1.9-0.8-1.8-1.9c0-0.3,0.1-0.7,0.4-1.1l0.2-0.3l-1.5-0.2l-0.1,0.2c-0.2,0.4-0.3,0.9-0.3,1.4
	c-0.1,2.1,1,3.5,3.2,3.6C6.5,44.1,6.6,44.1,6.6,44.1z M6.9,36.8C7.3,37,7.7,37,8.1,37c1.4,0,2.4-0.8,2.8-2.2
	c0.2-0.9,0.2-1.7-0.2-2.3c-0.4-0.7-1.1-1.3-2.1-1.5c-0.4-0.1-0.8-0.2-1.1-0.2C6,30.7,5,31.6,4.6,33C4.1,34.8,4.9,36.3,6.9,36.8z
	 M5.9,33.4c0.2-0.8,0.9-1,1.4-1c0.2,0,0.5,0,0.8,0.1c0.6,0.2,1.1,0.5,1.4,0.9c0.2,0.3,0.2,0.6,0.1,1c-0.2,0.8-0.9,1-1.4,1
	c-0.3,0-0.5,0-0.8-0.1C6.5,35,5.6,34.4,5.9,33.4z M13.2,28.6l-2.2-1.2l0.1-0.1c0.2-0.4,0.4-0.4,0.7-0.3l2.1,0.3l0.8-1.6L12,25.4
	c-0.2,0-0.4,0-0.5,0c0-0.6-0.3-1.2-0.9-1.5c-0.3-0.2-0.6-0.3-0.9-0.3c-1,0-1.6,1-2.1,2L6.9,27l5.6,3L13.2,28.6z M9.9,26.6l-0.1,0.1
	l-1-0.5l0.1-0.1c0.3-0.5,0.5-0.9,1-0.6c0.2,0.1,0.2,0.2,0.3,0.3C10.2,26,10.1,26.4,9.9,26.6z M16.7,23l-2.9-2.4l4.1,0.9l1.1-1.4
	l-4.9-4.1l-1,1.2l2.9,2.4L12,18.8l-1.1,1.4l4.9,4.1L16.7,23z M23.8,16.2l-0.9-1.1l-1.8,1.4l-0.8-0.9l1.6-1.3l-0.9-1.1l-1.6,1.3
	l-0.6-0.8l1.8-1.4l-0.9-1.1l-3,2.5l4,4.9L23.8,16.2z M29.1,13l-0.7-1.2l-2,1.1L24,8.6l-1.4,0.8l3.1,5.5L29.1,13z M34.4,11L34,9.7
	l-2.1,0.8l-1.7-4.7l-1.5,0.6l2.2,6L34.4,11z M40.8,9.9c0.1,0,0.3,0,0.4,0c0.9-0.1,1.5-0.3,1.9-0.8c0.4-0.4,0.5-1.1,0.5-1.8l-0.3-4
	l-1.6,0.1L42,7c0.1,1.3-0.4,1.5-0.9,1.5c0,0-0.1,0-0.1,0c-0.4,0-0.9-0.1-1-1.4l-0.3-3.6l-1.6,0.1l0.3,4C38.5,9.1,39.4,9.9,40.8,9.9z
	 M48.1,6.1l1.4,4l1.8,0.2L52.1,4l-1.5-0.2l-0.5,3.7l-1.4-4l-1.8-0.2l-0.9,6.3l1.5,0.2L48.1,6.1z M56.9,5.4l-1.5-0.5L53.4,11l1.5,0.5
	L56.9,5.4z M64.9,9l-1.5-0.7l-3.1,3.1L61,7l-1.5-0.8l-0.9,6.7l1.6,0.8L64.9,9z M66.4,18.1l0.8-1.1l-1.8-1.4l0.8-1l1.6,1.3l0.8-1.1
	l-1.6-1.3l0.6-0.8l1.8,1.4l0.8-1.1l-3.1-2.4l-3.9,5L66.4,18.1z M69.1,20.7l1.8-1.6l0.1,0.1c0.2,0.3,0.2,0.4,0,0.8l-1,1.9l1.2,1.3
	l1.3-2.5c0-0.1,0.1-0.3,0.2-0.5c0.5,0.2,1.2,0.1,1.7-0.3c1.4-1.2,0.3-2.5-0.5-3.4l-1-1.2L68,19.5L69.1,20.7z M72.8,17.4l0.1,0.1
	c0.2,0.3,0.5,0.6,0.4,0.8c0,0.1-0.1,0.2-0.2,0.3c-0.1,0.1-0.2,0.2-0.4,0.2c-0.3,0-0.6-0.3-0.8-0.5L72,18.2L72.8,17.4z M75,25.8
	c-0.3,0.2-0.7-0.1-0.9-0.4c-0.2-0.3-0.3-0.8-0.3-1.2l0-0.3l-1.5,0.7l0.1,0.3c0.1,0.5,0.2,0.8,0.5,1.3c0.5,0.9,1.2,1.4,1.9,1.4
	c0.3,0,0.7-0.1,1-0.3c1.1-0.7,1-1.7,0.8-2.5c-0.1-0.5-0.1-0.9,0.1-1c0.1-0.1,0.2-0.1,0.3-0.1c0.3,0,0.5,0.3,0.6,0.4
	c0.2,0.3,0.3,0.7,0.4,1.1l0,0.3l1.3-0.6l0-0.2c-0.1-0.4-0.3-0.9-0.6-1.4C78.2,22,77,21.7,76,22.3c-1.1,0.6-0.9,1.7-0.8,2.4
	C75.2,25.3,75.3,25.7,75,25.8z M75.7,31.6l5.9-2.4L81,27.7l-5.9,2.4L75.7,31.6z M81.6,33.7l-4.8,1.2l0.4,1.6l4.8-1.2l0.4,1.6
	l1.3-0.3l-1.2-4.8L81.2,32L81.6,33.7z M77.9,41.4L78,43l2.5-0.1l4,2l-0.1-1.7L82.1,42l2.2-1.4l-0.1-1.9l-3.7,2.5L77.9,41.4z
	 M7.9,55.9l1.3-0.4l-0.6-1.9l1-0.3l0.6,2l1.3-0.4l-1-3.6l-6.1,1.8l0.5,1.6L7.3,54L7.9,55.9z M13.5,61.2c0.2-0.7,0.2-1.6-0.2-2.4
	c-0.6-1.1-1.5-1.8-2.6-1.8c-0.5,0-1.1,0.1-1.7,0.4c-0.9,0.5-1.6,1.1-1.8,1.9c-0.2,0.7-0.2,1.5,0.2,2.4c0.6,1.1,1.5,1.8,2.6,1.8
	c0.5,0,1.1-0.1,1.7-0.4C12.7,62.6,13.3,62,13.5,61.2z M11,61.6c-0.4,0.2-0.8,0.3-1.2,0.3c-0.6,0-1-0.3-1.2-0.7
	c-0.2-0.3-0.2-0.7-0.1-1c0.1-0.4,0.6-0.9,1.2-1.2c0.4-0.2,0.8-0.3,1.1-0.3c0.6,0,1,0.2,1.2,0.7c0.2,0.3,0.2,0.7,0.1,1
	C12,60.9,11.6,61.3,11,61.6z M17.9,66.1l-2.8,2.3c-0.8,0.6-1.3,0.7-1.8,0.1c-0.2-0.2-0.3-0.4-0.2-0.7c0-0.3,0.3-0.7,0.7-1l2.8-2.3
	l-1-1.3l-3.1,2.5c-0.7,0.5-1,1.1-1,1.7c0,0.6,0.2,1.2,0.7,1.9c0.6,0.8,1.3,1.2,2,1.2c0.5,0,1-0.2,1.6-0.6l3.1-2.5L17.9,66.1z
	 M23.3,71.3L21,74.2l0.9-4.1L20.5,69l-4,4.9l1.2,1L20,72l-0.9,4.1l1.4,1.1l4-4.9L23.3,71.3z M28,74.3l-1.6-0.8l-2.9,5.7l1.6,0.8
	c0.8,0.4,1.5,0.6,2.1,0.6c1.1,0,2-0.6,2.6-1.8C30.8,76.9,30.2,75.4,28,74.3z M28.3,78c-0.3,0.7-0.9,1-1.6,1c-0.3,0-0.5-0.1-0.8-0.2
	l-0.4-0.2l1.6-3.2l0.4,0.2c0.4,0.2,0.7,0.6,0.9,1C28.6,77.1,28.6,77.6,28.3,78z M31.5,82.7l3.8,1l0.4-1.3l-2.2-0.6l0.3-1.2l2,0.5
	l0.4-1.3l-2-0.5l0.3-1l2.2,0.6l0.4-1.3l-3.8-1L31.5,82.7z M40.9,78.1L39.1,78l-0.4,6.4l1.8,0.1c0.1,0,0.3,0,0.4,0c2.1,0,3.3-1,3.4-3
	c0.1-1-0.2-1.8-0.7-2.3C43.1,78.5,42.2,78.1,40.9,78.1z M40.9,83.1l-0.4,0l0.2-3.6l0.4,0c0.9,0,1.7,0.7,1.6,1.9
	C42.6,82.6,41.7,83.1,40.9,83.1z M50,77.6l-1.1,6.7l1.7-0.4l0.2-1.4l2-0.4l0.8,1.2l1.7-0.4l-3.8-5.7L50,77.6z M51,81.1l0.2-1.7
	l0.9,1.4L51,81.1z M56,80.9l0.6,1.5l1.5-0.6l-0.6-1.5L56,80.9z M59.1,74.4l-1.6,0.9l3,5.6l1.6-0.9c2.1-1.1,2.7-2.7,1.7-4.5
	C62.8,73.7,61.2,73.3,59.1,74.4z M61.7,78.7l-0.4,0.2l-1.7-3.2l0.4-0.2c0.3-0.1,0.5-0.2,0.8-0.2c0.6,0,1.2,0.4,1.5,1
	C62.9,77.3,62.4,78.3,61.7,78.7z M65,76.4l0.9,1.3l1.3-0.9l-0.9-1.3L65,76.4z M67.6,68.3l-0.3,2.5l1.4,0.2l0.1-1l3,3.1l1.2-1.1
	l-4.5-4.5L67.6,68.3z M76.2,65c-0.5-0.4-1.1-0.5-1.8-0.2c0-0.6-0.3-1.2-0.7-1.5c-0.8-0.6-1.9-0.3-2.6,0.8c-0.8,1-0.7,2.1,0.2,2.7
	c0.4,0.3,1,0.4,1.6,0.2c0,0.7,0.2,1.2,0.7,1.6c0.4,0.3,0.7,0.4,1.1,0.4c0.6,0,1.3-0.4,1.8-1.1c0.4-0.6,0.6-1.2,0.6-1.8
	C76.9,65.7,76.6,65.3,76.2,65z M73.2,65.4c-0.2,0.1-0.5,0.3-0.7,0.3c-0.1,0-0.2,0-0.3-0.1c-0.3-0.2-0.2-0.6,0-0.8
	c0.1-0.1,0.2-0.2,0.4-0.2c0.1,0,0.2,0,0.3,0.1C73.1,64.9,73.2,65.2,73.2,65.4z M75.3,67.1c-0.2,0.3-0.6,0.4-0.9,0.2
	c-0.3-0.2-0.3-0.4-0.3-0.9c0.5-0.3,0.8-0.3,1.1-0.1c0.1,0.1,0.2,0.2,0.2,0.4C75.5,66.8,75.5,67,75.3,67.1z M79.1,58.7
	c-1.1-0.6-2.2-0.2-2.7,0.8c-0.1,0.3-0.2,0.6-0.2,0.9c-0.4-0.3-0.8-0.8-0.4-1.5c0.2-0.3,0.4-0.5,0.6-0.7l0.2-0.2l-1.2-0.8l-0.1,0.1
	c-0.3,0.3-0.6,0.7-0.8,1.1c-0.3,0.6-0.4,1.2-0.2,1.8c0.3,1,1.4,1.7,2.2,2.1c0.7,0.4,1.3,0.5,1.8,0.5c0.8,0,1.4-0.4,1.8-1.2
	C80.8,60.5,80.4,59.4,79.1,58.7z M79,61.2c-0.1,0.2-0.3,0.3-0.5,0.3c-0.2,0-0.3,0-0.5-0.1c-0.3-0.2-0.5-0.3-0.6-0.5
	c0-0.1,0-0.2,0-0.4c0.1-0.2,0.2-0.3,0.5-0.3c0.2,0,0.4,0.1,0.6,0.2c0.3,0.1,0.5,0.3,0.5,0.5C79.1,60.9,79.1,61,79,61.2z M81.3,52.3
	c-1.3-0.4-2.3,0.2-2.7,1.4c0,0.1-0.1,0.2-0.1,0.3l-0.7-0.2l0.6-2.2l-1.3-0.4l-1.1,3.7l3.5,1.1l0-0.3c0-0.3,0-0.7,0.1-1
	c0.1-0.3,0.4-1.1,1.1-0.9c0.7,0.2,0.6,1,0.5,1.2c-0.1,0.4-0.4,0.7-0.6,1l-0.2,0.2l1.5,0.5l0.1-0.2c0.2-0.4,0.5-0.9,0.6-1.3
	c0.2-0.7,0.2-1.4-0.1-2C82.4,52.9,81.9,52.5,81.3,52.3z M11.8,43.8c0,17.7,14.4,32.1,32,32.1c17.7,0,32-14.4,32-32.1
	c0-17.7-14.4-32-32-32C26.2,11.8,11.8,26.2,11.8,43.8z M43.8,12.9c17.1,0,30.9,13.9,30.9,30.9c0,17.1-13.9,30.9-30.9,30.9
	c-17.1,0-30.9-13.9-30.9-30.9C12.9,26.8,26.8,12.9,43.8,12.9z M43.8,0C19.7,0,0,19.7,0,43.8C0,68,19.7,87.7,43.8,87.7
	C68,87.7,87.7,68,87.7,43.8C87.7,19.7,68,0,43.8,0z M43.8,86.5c-23.5,0-42.7-19.1-42.7-42.7c0-23.5,19.2-42.7,42.7-42.7
	c23.5,0,42.7,19.2,42.7,42.7C86.5,67.4,67.4,86.5,43.8,86.5z"/>
</svg>
