<svg id="Layer_1" data-name="Layer 1" xmlns="http://www.w3.org/2000/svg" viewBox="0 0 570.39 87.67"><defs><style>.cls-1{fill:#222;}.cls-2{fill:#b32025;}</style></defs><title>cul-logo-single</title><path class="cls-1" d="M131,64.92a7.19,7.19,0,0,0,3.06-.6,10.52,10.52,0,0,0,2.68-1.91l2.21,2.27a10.18,10.18,0,0,1-7.84,3.58,10.51,10.51,0,0,1-7.65-3,10.78,10.78,0,0,1,.06-15.07,10.75,10.75,0,0,1,7.83-3,10.24,10.24,0,0,1,7.9,3.49L137,53.08a9.54,9.54,0,0,0-2.75-1.95,7.71,7.71,0,0,0-3-.55,7.22,7.22,0,0,0-5.18,2A6.72,6.72,0,0,0,124,57.66,7,7,0,0,0,126,62.84,6.74,6.74,0,0,0,131,64.92Z" transform="translate(-14.8 -16.16)"/><path class="cls-1" d="M159.68,65.23a11.15,11.15,0,0,1-15.25,0,10.68,10.68,0,0,1,0-15,11.15,11.15,0,0,1,15.25,0,10.68,10.68,0,0,1,0,15ZM157.16,52.5a7.13,7.13,0,0,0-10.21,0,7.59,7.59,0,0,0,0,10.44,7.13,7.13,0,0,0,10.21,0,7.6,7.6,0,0,0,0-10.44Z" transform="translate(-14.8 -16.16)"/><path class="cls-1" d="M183.33,54.3q0,5-4.39,6.34L184.27,68H179.9L175,61.2h-4.51V68H167.1V47.7h7.56q4.66,0,6.66,1.57T183.33,54.3Zm-4.57,2.88a3.63,3.63,0,0,0,1-2.9,3.1,3.1,0,0,0-1.08-2.73,7.16,7.16,0,0,0-3.84-.74h-4.36v7.27h4.28Q177.72,58.09,178.77,57.18Z" transform="translate(-14.8 -16.16)"/><path class="cls-1" d="M203.53,47.7H207V68h-3.72L191.71,53.2V68h-3.43V47.7h3.43l11.81,15.19Z" transform="translate(-14.8 -16.16)"/><path class="cls-1" d="M226.89,47.7v3.23H216v5.38h9.75v3.05H216v5.44h11.2V68H212.6V47.7Z" transform="translate(-14.8 -16.16)"/><path class="cls-1" d="M231.63,68V47.7h3.43V64.78h9.28V68Z" transform="translate(-14.8 -16.16)"/><path class="cls-1" d="M248.1,68V47.7h3.43V64.78h9.28V68Z" transform="translate(-14.8 -16.16)"/><path class="cls-1" d="M277.11,63.38a5.21,5.21,0,0,0,7.57,0,6.57,6.57,0,0,0,1.4-4.42V47.7h3.43V59.1a9.06,9.06,0,0,1-2.41,6.76,9.28,9.28,0,0,1-12.39,0,9.05,9.05,0,0,1-2.42-6.76V47.7h3.43V59A6.57,6.57,0,0,0,277.11,63.38Z" transform="translate(-14.8 -16.16)"/><path class="cls-1" d="M310.13,47.7h3.43V68h-3.72L298.32,53.2V68h-3.43V47.7h3.43l11.81,15.19Z" transform="translate(-14.8 -16.16)"/><path class="cls-1" d="M319.21,47.7h3.43V68h-3.43Z" transform="translate(-14.8 -16.16)"/><path class="cls-1" d="M337.57,68h-3.84L325.55,47.7h3.84l6.26,15.19L341.9,47.7h3.84Z" transform="translate(-14.8 -16.16)"/><path class="cls-1" d="M362.94,47.7v3.23H352.08v5.38h9.75v3.05h-9.75v5.44h11.2V68H348.65V47.7Z" transform="translate(-14.8 -16.16)"/><path class="cls-1" d="M383.91,54.3q0,5-4.39,6.34L384.84,68h-4.36l-4.86-6.84h-4.51V68h-3.43V47.7h7.56q4.66,0,6.66,1.57T383.91,54.3Zm-4.57,2.88a3.63,3.63,0,0,0,1-2.9,3.1,3.1,0,0,0-1.08-2.73,7.16,7.16,0,0,0-3.84-.74h-4.36v7.27h4.28Q378.3,58.09,379.35,57.18Z" transform="translate(-14.8 -16.16)"/><path class="cls-1" d="M395,50.38a4.5,4.5,0,0,0-2.46.61,2,2,0,0,0-1,1.85,2.15,2.15,0,0,0,1,1.89,14.47,14.47,0,0,0,4.09,1.41,11.25,11.25,0,0,1,4.71,2.12,5,5,0,0,1,1.59,4,5.34,5.34,0,0,1-2,4.32,8,8,0,0,1-5.27,1.66A12.37,12.37,0,0,1,387.2,65l2.15-2.59a9.69,9.69,0,0,0,6.4,2.68,4.37,4.37,0,0,0,2.63-.71,2.23,2.23,0,0,0,1-1.89,2.12,2.12,0,0,0-.92-1.83,9.66,9.66,0,0,0-3.16-1.19,28.25,28.25,0,0,1-3.4-1,7.69,7.69,0,0,1-2.07-1.18,4.92,4.92,0,0,1-1.8-4.19,5.1,5.1,0,0,1,2.05-4.35,8.27,8.27,0,0,1,5.08-1.53,12.18,12.18,0,0,1,3.87.64,10.12,10.12,0,0,1,3.32,1.8l-1.83,2.59a6.94,6.94,0,0,0-2.44-1.34A9.42,9.42,0,0,0,395,50.38Z" transform="translate(-14.8 -16.16)"/><path class="cls-1" d="M407.19,47.7h3.43V68h-3.43Z" transform="translate(-14.8 -16.16)"/><path class="cls-1" d="M423.95,50.84V68h-3.43V50.84h-6.17V47.7h15.77v3.14Z" transform="translate(-14.8 -16.16)"/><path class="cls-1" d="M441.84,68h-3.49V60L430.78,47.7h3.75L440.09,57l5.56-9.25h3.75L441.84,60Z" transform="translate(-14.8 -16.16)"/><path class="cls-1" d="M460,68V47.7h3.43V64.78h9.28V68Z" transform="translate(-14.8 -16.16)"/><path class="cls-1" d="M476.43,47.7h3.43V68h-3.43Z" transform="translate(-14.8 -16.16)"/><path class="cls-1" d="M494.41,68h-8.9V47.7h7.91a11.42,11.42,0,0,1,3.56.49,4.9,4.9,0,0,1,2.23,1.34,5.2,5.2,0,0,1,1.4,3.55,4.2,4.2,0,0,1-1.51,3.55,6.68,6.68,0,0,1-.76.51l-.73.33a5.34,5.34,0,0,1,3,1.7,4.74,4.74,0,0,1,1.12,3.21,5.47,5.47,0,0,1-1.46,3.75Q498.57,68,494.41,68Zm-5.47-11.9h4.36q3.72,0,3.72-2.53a2.39,2.39,0,0,0-.9-2.09,4.87,4.87,0,0,0-2.79-.64h-4.39Zm0,8.73h5.38a5.74,5.74,0,0,0,2.9-.6,2.4,2.4,0,0,0,1-2.25q0-2.71-4.34-2.71h-4.95Z" transform="translate(-14.8 -16.16)"/><path class="cls-1" d="M522.29,54.3q0,5-4.39,6.34L523.22,68h-4.36L514,61.2h-4.51V68h-3.43V47.7h7.56q4.66,0,6.66,1.57T522.29,54.3Zm-4.57,2.88a3.63,3.63,0,0,0,1-2.9,3.1,3.1,0,0,0-1.08-2.73,7.16,7.16,0,0,0-3.84-.74h-4.36v7.27h4.28Q516.67,58.09,517.72,57.18Z" transform="translate(-14.8 -16.16)"/><path class="cls-1" d="M530.11,63.41l-2,4.63h-3.67l9-20.34H537L546,68h-3.67l-2-4.63Zm8.79-3.17-3.7-8.38-3.69,8.38Z" transform="translate(-14.8 -16.16)"/><path class="cls-1" d="M565.06,54.3q0,5-4.39,6.34L566,68h-4.36l-4.86-6.84h-4.51V68h-3.43V47.7h7.56q4.66,0,6.66,1.57T565.06,54.3Zm-4.57,2.88a3.63,3.63,0,0,0,1-2.9,3.1,3.1,0,0,0-1.08-2.73,7.16,7.16,0,0,0-3.84-.74h-4.36v7.27h4.28Q559.44,58.09,560.49,57.18Z" transform="translate(-14.8 -16.16)"/><path class="cls-1" d="M577.63,68h-3.49V60L566.57,47.7h3.75L575.88,57l5.56-9.25h3.75L577.63,60Z" transform="translate(-14.8 -16.16)"/><path class="cls-2" d="M48.32,83.31a48,48,0,0,0,10.12,6.1l.38.16.38-.16a50.2,50.2,0,0,0,10.09-6.09C76,78.07,79.54,72.1,79.54,66V38.37H38.06v27.2C38.06,71.88,41.6,78,48.32,83.31Zm9.56-8.49a2.2,2.2,0,0,0-.74-.13h0c-1,0-1.76.07-2.57.14s-1.61.15-2.81.17c-.55,0-1,0-1.42,0V62h.17c.5,0,1.11,0,1.88,0s1.37-.09,2.19-.18L56,61.65a6.24,6.24,0,0,1,1.66.06l.2.07v13ZM77.57,66c0,11.33-13.92,19-18,21V76.77l.2-.22a.81.81,0,0,1,.73-.38c.95,0,1.66.06,2.47.14s1.65.15,2.91.18,2.2,0,2.24,0l.7,0V72.57h1.63V70.51H68.8V66.78h1.63V64.73H68.8V60.54l-.72,0h-.92c-.5,0-1.09,0-1.85,0-.59,0-1.28-.09-2.07-.17l-1.48-.15a7.25,7.25,0,0,0-2.16.09h0v-4h18Zm-18,8.84V61.84a1.68,1.68,0,0,1,.36-.13,6,6,0,0,1,1.69-.06l1.47.15c.83.09,1.54.16,2.19.18l1.66,0h.39V75c-.37,0-.87,0-1.42,0-1.2,0-2-.1-2.81-.17a24.92,24.92,0,0,0-2.61-.14A2.23,2.23,0,0,0,59.56,74.89ZM40,40.33H77.57v14H40Zm0,16H57.87v3.92a7.29,7.29,0,0,0-2-.07l-1.49.15c-.8.09-1.48.16-2.07.17-.75,0-1.35,0-1.85,0h-.93l-.72,0v3.78H47v2.06h1.76v3.78H47v2.05h1.76v4.21l.7,0s1,.05,2.24,0,2.13-.11,2.91-.18,1.49-.14,2.43-.14a.72.72,0,0,1,.69.36l.1.11V87C53.54,84.86,40,77.26,40,65.57ZM55.7,41.74H45.22v.73c0,2.29,0,6.16,0,6.34a3,3,0,0,0,1.6,2.2c1.26.85,3.15,2,3.23,2l.36.21.36-.2c.09,0,2.12-1.16,3.39-2,1.49-1,1.51-1.89,1.52-2.2s0-3.53,0-6.34v-.73Zm-9,1.47h7.54c0,.61,0,1.27,0,1.91H46.69C46.69,44.48,46.69,43.82,46.69,43.21Zm7.53,5.56c0,.37-.48.75-.87,1-.9.61-2.26,1.38-2.91,1.74-.61-.37-1.89-1.13-2.79-1.74-.59-.39-.94-.78-1-1.07,0-.11,0-1,0-2.12h7.54C54.23,47.74,54.23,48.63,54.22,48.77Zm19.31-7.34H62.81v.74c0,2.88,0,6.33,0,6.51a3.09,3.09,0,0,0,1.64,2.23c1.29.87,3.22,2,3.31,2.05l.36.21.37-.2c.09,0,2.18-1.18,3.48-2.06,1.52-1,1.55-1.94,1.55-2.24s0-3.62,0-6.5Zm-1.47,7.2c0,.38-.49.78-.9,1.05-.93.62-2.34,1.42-3,1.79-.63-.37-1.94-1.16-2.87-1.79-.29-.19-1-.69-1-1.12,0,0,0-.18,0-.39L68,45.5l4.06,2.7C72.06,48.43,72.06,48.58,72.06,48.63ZM68,43.7l-3.68,2.66c0-1.06,0-2.33,0-3.46h7.77c0,1.15,0,2.46,0,3.53Zm-6.5,21.05.7.07c.48.05.89.1,1.25.1l2.17.06,0-1.48-2.16-.06c-.32,0-.69,0-1.13-.09l-.71-.07a3.72,3.72,0,0,0-.54,0l.06,1.47Zm2,2.78c-.31,0-.66,0-1.07-.09l-.77-.08a4.76,4.76,0,0,0-.53,0l0,1.47h.36l.76.08c.45,0,.84.09,1.19.1L65,69l.57,0,0-1.47-.56,0Zm0,4.2c-.31,0-.67,0-1.09-.1l-.74-.08a3.94,3.94,0,0,0-.54,0l0,1.47.35,0,.74.07c.46.05.86.09,1.21.1l.61,0,1.56,0,0-1.48-1.55,0Zm-9.3-6.83c.36,0,.77-.05,1.25-.1l.71-.08h.33l0-1.47-.49,0-.73.08c-.43,0-.79.09-1.12.09L52,63.49,52,65Zm1.1,2.51c-.43,0-.8.09-1.12.1L52,67.57,52,69,54.16,69c.36,0,.77-.05,1.25-.11l.69-.07h.32l.07-1.47a3.81,3.81,0,0,0-.52,0Zm0,4.2c-.43,0-.8.09-1.19.1L52,71.78l0,1.47,2.17-.06c.36,0,.77-.06,1.25-.11l.72-.07a2.25,2.25,0,0,1,.32,0l0-1.47a4,4,0,0,0-.49,0ZM21.44,60.23c1.84,0,3-1.18,3.11-3.22a5.92,5.92,0,0,0-.11-1.39l0-.18H22.88l.14.31a3,3,0,0,1,.15,1.19,1.72,1.72,0,0,1-2,1.64,1.74,1.74,0,0,1-1.81-1.85,2.14,2.14,0,0,1,.36-1.13l.19-.29-1.5-.22-.07.15A4,4,0,0,0,18,56.6a3.13,3.13,0,0,0,3.16,3.63ZM21.68,53a4.43,4.43,0,0,0,1.18.17,2.84,2.84,0,0,0,2.84-2.24,3,3,0,0,0-.2-2.32,3.37,3.37,0,0,0-2.13-1.54,4.17,4.17,0,0,0-1.14-.17,2.84,2.84,0,0,0-2.85,2.24A3,3,0,0,0,21.68,53Zm-1-3.49a1.34,1.34,0,0,1,1.42-1,2.94,2.94,0,0,1,.78.11,2.25,2.25,0,0,1,1.37.93,1.23,1.23,0,0,1,.09,1,1.33,1.33,0,0,1-1.41,1,3.09,3.09,0,0,1-.84-.13C21.3,51.16,20.42,50.53,20.71,49.52ZM28,44.74l-2.17-1.16.07-.13c.2-.39.36-.35.7-.31l2.12.27.84-1.58-2.81-.29a1.81,1.81,0,0,0-.55,0,1.57,1.57,0,0,0-.86-1.47,2,2,0,0,0-.91-.25c-1,0-1.57,1-2.06,2l-.74,1.38,5.61,3Zm-3.3-1.94-.08.14-1-.54.08-.14c.26-.47.53-.87,1-.64a.54.54,0,0,1,.28.3A1.36,1.36,0,0,1,24.72,42.8Zm6.81-3.59-2.88-2.39,4.09.93,1.14-1.37L29,32.32l-1,1.21,2.88,2.39L26.79,35l-1.15,1.38,4.9,4.06Zm7.08-6.88-.87-1.07L36,32.72l-.77-.95,1.62-1.31-.87-1.07L34.33,30.7l-.64-.79,1.76-1.43-.87-1.07-3,2.45,4,4.93Zm5.28-3.15L43.21,28l-2,1.11-2.44-4.34-1.41.8,3.12,5.54Zm5.34-2-.47-1.29-2.13.77-1.7-4.68-1.52.55,2.16,6Zm6.4-1.05.39,0a2.73,2.73,0,0,0,1.93-.82,2.45,2.45,0,0,0,.47-1.85l-.33-4-1.61.13.3,3.63c.11,1.28-.41,1.49-.87,1.53h-.12c-.38,0-.89-.14-1-1.37l-.3-3.63-1.61.13.33,4A2.2,2.2,0,0,0,55.63,26.09Zm7.28-3.8,1.37,4,1.77.24.85-6.3L65.36,20l-.5,3.72-1.37-4-1.77-.24-.85,6.31,1.55.21Zm8.77-.73-1.54-.49-1.9,6.07,1.54.48Zm8,3.57L78.2,24.4l-3.07,3.12.68-4.32-1.54-.78-.94,6.65,1.57.79Zm1.59,9.09.85-1.08-1.81-1.41.75-1,1.64,1.29L83.52,31l-1.64-1.28.63-.8,1.79,1.4.85-1.08-3.06-2.4-3.92,5Zm2.63,2.67,1.85-1.62.1.12c.24.27.24.39,0,.76l-1,1.88,1.18,1.34,1.27-2.53a1.8,1.8,0,0,0,.17-.52A1.59,1.59,0,0,0,89.16,36c1.37-1.2.27-2.45-.53-3.36l-1-1.19-4.78,4.2Zm3.74-3.28.11.12c.23.26.46.56.44.8a.45.45,0,0,1-.19.32.55.55,0,0,1-.35.16c-.27,0-.55-.28-.77-.52l-.11-.12ZM89.8,42c-.31.18-.7-.13-.88-.43a2.57,2.57,0,0,1-.33-1.22V40l-1.46.67.1.33a4.77,4.77,0,0,0,.54,1.31,2.36,2.36,0,0,0,1.94,1.36,2,2,0,0,0,1-.31,2.1,2.1,0,0,0,.82-2.49c-.09-.55-.13-.88.09-1a.65.65,0,0,1,.32-.1.73.73,0,0,1,.56.39,2.89,2.89,0,0,1,.36,1.07l0,.29,1.32-.6,0-.17a4.5,4.5,0,0,0-.56-1.38,2,2,0,0,0-2.89-.91,2.06,2.06,0,0,0-.81,2.43C90,41.47,90.08,41.82,89.8,42Zm.73,5.76,5.89-2.4-.61-1.49-5.89,2.41Zm5.91,2.09L91.6,51,92,52.59l4.84-1.19.4,1.63,1.33-.33-1.18-4.82L96,48.2Zm-3.72,7.71.09,1.61,2.5-.14,4,2-.09-1.75-2.32-1.15L99,56.78l-.11-1.89L95.21,57.4Zm-70,14.56L24,71.71l-.55-1.92,1-.28.58,2,1.32-.38-1-3.58-6.12,1.76.46,1.56,2.49-.72Zm5.66,5.27A3,3,0,0,0,28.11,75a2.87,2.87,0,0,0-2.61-1.78,3.85,3.85,0,0,0-1.68.43A3.4,3.4,0,0,0,22,75.54a3,3,0,0,0,.24,2.36,2.88,2.88,0,0,0,2.64,1.76,3.85,3.85,0,0,0,1.69-.42A3.36,3.36,0,0,0,28.35,77.37Zm-2.53.37a2.68,2.68,0,0,1-1.16.3,1.35,1.35,0,0,1-1.29-1.73,2.22,2.22,0,0,1,1.18-1.15,2.59,2.59,0,0,1,1.11-.28A1.33,1.33,0,0,1,27,76.6,2.16,2.16,0,0,1,25.82,77.73Zm6.91,4.56-2.85,2.27c-.77.61-1.32.67-1.76.11a.88.88,0,0,1-.23-.67,1.73,1.73,0,0,1,.74-1l2.85-2.26-1-1.27-3.13,2.49a2.37,2.37,0,0,0-1,1.73A2.82,2.82,0,0,0,27,85.53a2.58,2.58,0,0,0,2,1.17,2.57,2.57,0,0,0,1.58-.64l3.14-2.49Zm5.41,5.18-2.38,2.9.91-4.11-1.41-1.14-4,4.92,1.22,1,2.38-2.91-.9,4.13,1.39,1.14,4-4.92Zm4.7,3-1.64-.82-2.86,5.69,1.64.82a4.71,4.71,0,0,0,2.11.59A2.81,2.81,0,0,0,44.65,95C45.59,93.06,45,91.56,42.83,90.48Zm.31,3.72A1.7,1.7,0,0,1,40.8,95l-.39-.19L42,91.61l.39.2a1.72,1.72,0,0,1,.86,1A1.82,1.82,0,0,1,43.15,94.19Zm3.2,4.68,3.81,1,.35-1.32L48.26,98l.31-1.18,2,.54L51,96l-2-.55.26-1,2.22.59.36-1.32-3.79-1Zm9.38-4.64-1.84-.11-.35,6.35,1.83.11h.42c2.13,0,3.27-1,3.38-3a3.1,3.1,0,0,0-.67-2.32A3.84,3.84,0,0,0,55.73,94.23Zm-.06,5-.44,0,.21-3.61.43,0a1.81,1.81,0,0,1-.2,3.6Zm9.09-5.47-1.08,6.73,1.66-.36.22-1.43,2-.45.78,1.23,1.74-.38-3.77-5.69Zm1,3.5.2-1.66L66.84,97Zm5-.21.55,1.53L72.89,98l-.56-1.53Zm3.1-6.44-1.62.87,3,5.59,1.61-.87C79,95,79.61,93.52,78.61,91.67S76,89.45,73.91,90.6Zm2.58,4.27-.38.21-1.72-3.17.39-.21a1.71,1.71,0,0,1,2.37.76A1.71,1.71,0,0,1,76.48,94.87Zm3.34-2.27.93,1.34L82.09,93l-.93-1.34Zm2.54-8.14L82.08,87l1.4.19.12-1,3,3.08L87.78,88l-4.47-4.53ZM91,81.13a1.77,1.77,0,0,0-1.79-.2,1.8,1.8,0,0,0-.7-1.45c-.79-.58-1.85-.25-2.62.79A1.82,1.82,0,0,0,86.05,83a1.66,1.66,0,0,0,1.56.2,1.69,1.69,0,0,0,.68,1.57,1.84,1.84,0,0,0,1.11.4,2.37,2.37,0,0,0,1.81-1.1,2.43,2.43,0,0,0,.56-1.76A1.84,1.84,0,0,0,91,81.13Zm-3,.46a1.41,1.41,0,0,1-.67.26.44.44,0,0,1-.27-.08c-.31-.23-.16-.62,0-.81a.47.47,0,0,1,.39-.22.58.58,0,0,1,.34.12A.82.82,0,0,1,88,81.59Zm2.18,1.71a.65.65,0,0,1-.9.17A.81.81,0,0,1,89,82.6c.46-.3.79-.35,1.08-.13a.55.55,0,0,1,.23.36A.67.67,0,0,1,90.14,83.31Zm3.72-8.4a1.86,1.86,0,0,0-2.68.84,1.6,1.6,0,0,0-.18.87,1.15,1.15,0,0,1-.44-1.45,2.34,2.34,0,0,1,.62-.75l.22-.18-1.17-.84-.13.13a3.9,3.9,0,0,0-.78,1.07,2.33,2.33,0,0,0-.18,1.84,5.16,5.16,0,0,0,4,2.67A1.93,1.93,0,0,0,95,77.91,2.07,2.07,0,0,0,93.86,74.91Zm-.06,2.41a.5.5,0,0,1-.49.31,1.16,1.16,0,0,1-.52-.15,1.08,1.08,0,0,1-.59-.55.46.46,0,0,1,0-.37.49.49,0,0,1,.48-.28,1.36,1.36,0,0,1,.58.16,1,1,0,0,1,.53.52A.43.43,0,0,1,93.81,77.32Zm2.31-8.83a2.17,2.17,0,0,0-2.73,1.73L92.64,70l.65-2.19L92,67.41l-1.09,3.67,3.53,1.12V71.9a3.43,3.43,0,0,1,.14-1c.09-.3.42-1.05,1.1-.85s.56,1,.49,1.23a2.82,2.82,0,0,1-.59,1l-.2.25,1.48.49.09-.16a6.58,6.58,0,0,0,.58-1.32,2.67,2.67,0,0,0-.08-2A2.14,2.14,0,0,0,96.11,68.49ZM26.58,60a32,32,0,1,0,32-32A32.09,32.09,0,0,0,26.58,60Zm32-30.94A30.94,30.94,0,1,1,27.69,60,31,31,0,0,1,58.63,29.06Zm0-12.89A43.84,43.84,0,1,0,102.47,60,43.88,43.88,0,0,0,58.63,16.16Zm0,86.53A42.69,42.69,0,1,1,101.32,60,42.74,42.74,0,0,1,58.63,102.69Z" transform="translate(-14.8 -16.16)"/></svg>